<svg xmlns="http://www.w3.org/2000/svg" width="63.931" height="59.172" viewBox="0 0 63.931 59.172"><g transform="translate(-181.069 -131.828)"><g transform="translate(67 56)"><text transform="translate(123 103)" fill="#271d76" font-size="20" font-family="SegoeUI-Bold, Segoe UI" font-weight="700"><tspan x="0" y="0">nauta</tspan><tspan x="0" y="27"></tspan></text><text transform="translate(123 119)" fill="#f3bf0a" font-size="15" font-family="SegoeUI-Bold, Segoe UI" font-weight="700"><tspan x="0" y="0">HOGAR</tspan></text></g><g transform="translate(26 4.595)"><g transform="matrix(1, 0.017, -0.017, 1, 155.332, 126.834)"><path d="M0,.092A3.234,3.234,0,0,1,2.473.476,2.566,2.566,0,0,1,3.254,2.3l-.1,19.473s.255-.075-.636-1.715A4.571,4.571,0,0,0,.333,17.954S.555,7.332.559,2.711A2.762,2.762,0,0,0,.212,1.589Z" transform="translate(11.951 2.451) rotate(-45)" fill="#f3bf0a"/><path d="M0,.5,2.521,0,5.336,16.243s-.262,1.136-.926,1.488a2.418,2.418,0,0,1-1.638.014Z" transform="translate(12.429 2.145) rotate(44)" fill="#271d76"/><path d="M.024.707S.74-.141,1.478.02s1.5,1.332,1.5,1.332L2.855,27.378,0,27.381Z" transform="translate(2.018 16.157) rotate(-1)" fill="#271d76"/></g></g></g></svg>